<svg width="40" height="41" viewBox="0 0 40 41" fill="none" xmlns="http://www.w3.org/2000/svg">
<path d="M38.5 20.9828C38.5 31.1948 30.2179 39.4743 20 39.4743C9.78214 39.4743 1.5 31.1948 1.5 20.9828C1.5 10.7708 9.78214 2.49121 20 2.49121C30.2179 2.49121 38.5 10.7708 38.5 20.9828Z" stroke="white" stroke-width="3"/>
<path d="M27.9711 24.283C26.7433 23.0557 25.2819 22.1472 23.6874 21.5972C25.3951 20.4215 26.5171 18.4539 26.5171 16.229C26.5171 12.637 23.5935 9.71472 20 9.71472C16.4065 9.71472 13.483 12.637 13.483 16.229C13.483 18.4539 14.6049 20.4215 16.3127 21.5972C14.7182 22.1472 13.2568 23.0557 12.029 24.283C9.89988 26.4113 8.72729 29.2409 8.72729 32.2507H10.4887C10.4887 27.0083 14.7554 22.7433 20 22.7433C25.2446 22.7433 29.5114 27.0083 29.5114 32.2507H31.2727C31.2727 29.2409 30.1002 26.4113 27.9711 24.283ZM20 20.9827C17.3777 20.9827 15.2443 18.8502 15.2443 16.229C15.2443 13.6078 17.3777 11.4753 20 11.4753C22.6223 11.4753 24.7557 13.6078 24.7557 16.229C24.7557 18.8502 22.6223 20.9827 20 20.9827Z" fill="white"/>
</svg>
