<svg width="84" height="67" viewBox="0 0 84 67" fill="none" xmlns="http://www.w3.org/2000/svg">
<path d="M83.707 37.5955L72.7676 17.856C72.391 17.304 71.6675 16.9848 70.9117 17.037H61.5349C60.456 17.037 59.5814 17.7704 59.5814 18.6751C59.5814 19.5799 60.456 20.3133 61.5349 20.3133H69.6419L78.7256 36.6947H67.5908C62.5422 36.6738 57.9508 39.1443 55.8698 43.0016C54.3626 45.6546 51.1696 47.3439 47.6651 47.3426H36.3349C32.8304 47.3439 29.6376 45.6546 28.1302 43.0016C26.0492 39.1443 21.4578 36.6738 16.4092 36.6947H5.46974L16.2139 20.3133H22.4651C23.544 20.3133 24.4186 19.5799 24.4186 18.6751C24.4186 17.7704 23.544 17.037 22.4651 17.037H15.0418C14.3359 16.9809 13.6537 17.267 13.2837 17.7742L0.390736 37.5955C0.164707 37.7636 0.0246781 37.9982 0 38.2508V58.6456C0.155547 63.2363 4.58488 66.9145 10.0604 67.0001H73.9396C79.4153 66.9145 83.8445 63.2363 84 58.6456V38.2508C83.963 38.0164 83.8628 37.7924 83.707 37.5955Z" fill="black"/>
<path d="M40.6326 37.9228C41.3255 38.5562 42.4995 38.5985 43.2547 38.0174C43.2939 37.9873 43.3315 37.9556 43.3674 37.9228L56.6511 26.7015C57.2983 25.9777 57.1235 24.951 56.2604 24.4081C55.5658 23.9713 54.6107 23.9713 53.9161 24.4081L43.9533 32.7626V1.63814C43.9533 0.733392 43.0787 0 41.9998 0C40.9209 0 40.0463 0.733392 40.0463 1.63814V32.7628L30.0835 24.4082C29.2203 23.8655 27.996 24.0121 27.3485 24.7359C26.8277 25.3183 26.8277 26.1193 27.3485 26.7017L40.6326 37.9228Z" fill="black"/>
</svg>
